# xmcd CD database file
#
# Track frame offsets:
#	150
#	23097
#	39659
#	54725
#	95931
#	112914
#	129930
#	147406
#
# Disc length: 2681 seconds
#
# Revision: 6
# Processed by: cddbd v1.5.2PL0 Copyright (c) Steve Scherf et al.
# Submitted via: CDex 1.70beta2
#
DISCID=6d0a7708
DTITLE=Sun Ra and His Arkestra - Jazz In Silhouette
DYEAR=1958
DGENRE=Jazz
TTITLE0=Enlightenment■f
TTITLE1=Saturn■f
TTITLE2=Velvet■f
TTITLE3=Ancient Aiethopia■f
TTITLE4=Hours After■f
TTITLE5=Horoscope■f
TTITLE6=Images■f
TTITLE7=Blues At Midnight■f
EXTD=YEAR: 1958
EXTT0=
EXTT1=
EXTT2=
EXTT3=
EXTT4=
EXTT5=
EXTT6=
EXTT7=
PLAYORDER=
